<?xml version="1.0"?><svg width="640" height="480" xmlns="http://www.w3.org/2000/svg">
 <!-- Created with SVG-edit - http://svg-edit.googlecode.com/ -->
 <title>Minnie Bow</title>
 <g>
  <title>Layer 1</title>
  <path fill="#e33593" stroke="#000000" stroke-width="5" stroke-dasharray="null" stroke-linejoin="null" stroke-linecap="null" d="m286,205c1.666687,-21.666672 -112.666672,-138.333328 -175,-108c-62.333328,30.333328 29,78 3,184c-26,106 173,-60 174,-52c1,8 -4,-18 -3,-15c1,3 -0.666687,12.666672 1,-9z" id="svg_4"/>
  <ellipse fill="#e33593" stroke="#000000" stroke-width="5" stroke-dasharray="null" stroke-linejoin="null" stroke-linecap="null" cx="208.962311" cy="268.202124" rx="98.844907" ry="18.739544" id="svg_5" transform="rotate(-27.492799758911133 208.9623107910157,268.2021179199219) "/>
  <path fill="#e33593" stroke="#000000" stroke-width="5" stroke-dasharray="null" stroke-linejoin="null" stroke-linecap="null" d="m286.32254,204c-1.710876,-21.666672 115.653442,-138.333328 179.639221,-108c63.985809,30.333328 -29.768799,78 -3.079559,184c26.689301,106 -177.586182,-60 -178.612671,-52c-1.02652,8 4.106018,-18 3.079498,-15c-1.026489,3 0.684357,12.666672 -1.026489,-9z" id="svg_9"/>
  <ellipse fill="#e33593" stroke="#000000" stroke-width="5" stroke-dasharray="null" stroke-linejoin="null" stroke-linecap="null" cx="374.590858" cy="271.741062" rx="97.894924" ry="21.95858" transform="rotate(23.322399139404297 374.590850830078,271.7410583496094) " id="svg_10"/>
  <circle fill="#e33593" stroke="#000000" stroke-width="5" stroke-dasharray="null" stroke-linejoin="null" stroke-linecap="null" cx="287.999998" cy="213.499997" r="61.068878" id="svg_22"/>
  <ellipse ry="15" rx="15.5" id="svg_3" cy="127" cx="134.5" stroke-linecap="null" stroke-linejoin="null" stroke-dasharray="null" stroke-width="5" stroke="#ffffff" fill="#ffffff"/>
  <ellipse id="svg_12" ry="15" rx="15.5" cy="181" cx="139.5" stroke-linecap="null" stroke-linejoin="null" stroke-dasharray="null" stroke-width="5" stroke="#ffffff" fill="#ffffff"/>
  <ellipse id="svg_13" ry="15" rx="15.5" cy="149" cx="184.5" stroke-linecap="null" stroke-linejoin="null" stroke-dasharray="null" stroke-width="5" stroke="#ffffff" fill="#ffffff"/>
  <ellipse id="svg_14" ry="15" rx="15.5" cy="209" cx="191.5" stroke-linecap="null" stroke-linejoin="null" stroke-dasharray="null" stroke-width="5" stroke="#ffffff" fill="#ffffff"/>
  <ellipse id="svg_15" ry="15" rx="15.5" cy="242" cx="145.5" stroke-linecap="null" stroke-linejoin="null" stroke-dasharray="null" stroke-width="5" stroke="#ffffff" fill="#ffffff"/>
  <ellipse id="svg_16" ry="15" rx="15.5" cy="126" cx="447.5" stroke-linecap="null" stroke-linejoin="null" stroke-dasharray="null" stroke-width="5" stroke="#ffffff" fill="#ffffff"/>
  <ellipse id="svg_17" ry="15" rx="15.5" cy="152" cx="385.5" stroke-linecap="null" stroke-linejoin="null" stroke-dasharray="null" stroke-width="5" stroke="#ffffff" fill="#ffffff"/>
  <ellipse id="svg_18" ry="15" rx="15.5" cy="180" cx="432.5" stroke-linecap="null" stroke-linejoin="null" stroke-dasharray="null" stroke-width="5" stroke="#ffffff" fill="#ffffff"/>
  <ellipse id="svg_19" ry="15" rx="15.5" cy="211" cx="381.5" stroke-linecap="null" stroke-linejoin="null" stroke-dasharray="null" stroke-width="5" stroke="#ffffff" fill="#ffffff"/>
  <ellipse id="svg_20" ry="15" rx="15.5" cy="241" cx="427.5" stroke-linecap="null" stroke-linejoin="null" stroke-dasharray="null" stroke-width="5" stroke="#ffffff" fill="#ffffff"/>
  <ellipse id="svg_21" ry="15" rx="15.5" cy="191" cx="266.5" stroke-linecap="null" stroke-linejoin="null" stroke-dasharray="null" stroke-width="5" stroke="#ffffff" fill="#ffffff"/>
  <ellipse id="svg_23" ry="15" rx="15.5" cy="232" cx="307.5" stroke-linecap="null" stroke-linejoin="null" stroke-dasharray="null" stroke-width="5" stroke="#ffffff" fill="#ffffff"/>
 </g>
</svg>